<svg version="1.1" class="clearos-svg clearfoundation app-vendor-clearfoundation app-free app-category-network app-sub-category-settings" viewBox="0 0 400 400" preserveAspectRatio="xMinYMin" xmlns="http://www.w3.org/2000/svg" xmlns:xlink= "http://www.w3.org/1999/xlink">
  <g
     inkscape:label="Layer 1"
     inkscape:groupmode="layer"
     id="layer1"
     transform="translate(-114.0625,-316.40625)">
    <path
       style="fill:#686868;fill-opacity:1;stroke:none"
       d="m 134.0137,316.40625 c -12.89119,33.06866 -19.9512,69.08821 -19.9512,106.71881 0,162.27025 131.50776,293.77801 293.77801,293.77801 37.64924,0 73.63666,-7.04784 106.71881,-19.95119 L 336.87317,519.26572 389.22832,456.66717 c 8.41815,5.59793 18.52382,8.9044 29.39119,8.9044 29.35201,0 53.09161,-23.80655 53.09161,-53.15856 0,-29.35201 -23.7396,-53.15855 -53.09161,-53.15855 -29.352,0 -53.15855,23.80654 -53.15855,53.15855 0,10.8653 3.24148,20.974 8.83744,29.39119 L 311.69985,494.0924 134.0137,316.40625 z"
       id="path2985"
       inkscape:connector-curvature="0" />
  </g>
</svg>
